<mxfile host="app.diagrams.net" modified="2024-07-10T11:37:24.627Z" agent="Mozilla/5.0 (X11; Linux x86_64) AppleWebKit/537.36 (KHTML, like Gecko) Chrome/125.0.0.0 Safari/537.36" version="24.6.3" etag="QsDdYR-zyZKD0aM3ZdVh" type="github">
  <diagram name="Page-1" id="JLzCZ3W_Js68rwh3JM2e">
    <mxGraphModel>
      <root>
        <mxCell id="0" />
        <mxCell id="1" parent="0" />
        <mxCell id="2" value="Home" style="whiteSpace=wrap;strokeWidth=2;verticalAlign=top;" vertex="1" parent="1">
          <mxGeometry width="212" height="152" as="geometry" />
        </mxCell>
        <mxCell id="3" value="FeaturedInternships" style="whiteSpace=wrap;strokeWidth=2;verticalAlign=top;" vertex="1" parent="2">
          <mxGeometry x="43" y="33" width="142" height="102" as="geometry" />
        </mxCell>
        <mxCell id="4" value="Quick" style="whiteSpace=wrap;strokeWidth=2;" vertex="1" parent="3">
          <mxGeometry x="33" y="43" width="57" height="32" as="geometry" />
        </mxCell>
      </root>
    </mxGraphModel>
  </diagram>
</mxfile>
